<svg xmlns="http://www.w3.org/2000/svg" viewBox="0 0 1920 1080">
  <style>
    path { fill: #000; }
    @media (prefers-color-scheme: dark) {
      path { fill: #fff; }
    }
  </style>
  <g transform="translate(0,1080) scale(0.1,-0.1)">
    <path d="M3863 8956 c5 -12 305 -477 1041 -1613 83 -128 313 -482 511 -788
198 -305 417 -643 488 -751 l127 -195 0 -1097 0 -1097 413 -413 412 -412 667
0 c366 0 673 3 682 6 14 6 16 123 16 1230 l0 1224 615 0 615 0 1 -822 1 -823
429 -408 429 -407 643 2 642 3 5 1205 5 1205 141 -220 c283 -441 644 -1005
766 -1195 l124 -195 140 -90 c233 -150 846 -545 982 -632 l127 -83 812 1 c472
0 815 4 818 9 3 5 -144 231 -326 502 -2421 3606 -2159 3210 -2140 3234 17 24
139 165 686 794 198 228 505 583 683 788 l324 373 -344 339 -343 339 -780 0
-780 0 -185 -221 c-102 -122 -239 -285 -305 -363 -66 -78 -201 -239 -300 -357
l-180 -214 -3 167 -2 167 -202 224 c-110 122 -253 281 -317 353 -64 71 -140
156 -170 187 l-54 58 -1443 0 -1444 0 -24 -37 c-13 -21 -137 -229 -276 -463
-139 -234 -302 -508 -363 -608 l-109 -184 -148 247 -148 247 -648 399 -649
399 -833 0 c-719 0 -833 -2 -829 -14z"/>
  </g>
</svg>
